<svg xmlns="http://www.w3.org/2000/svg" xmlns:xlink="http://www.w3.org/1999/xlink" width="1080" zoomAndPan="magnify" viewBox="0 0 810 1012.49997" height="1350" preserveAspectRatio="xMidYMid meet" version="1.0"><defs><g/><clipPath id="e14e62635e"><rect x="0" width="612" y="0" height="145"/></clipPath></defs><g transform="matrix(1, 0, 0, 1, 99, 433)"><g clip-path="url(#e14e62635e)"><g fill="#892233" fill-opacity="1"><g transform="translate(1.197333, 107.918477)"><g><path d="M 3.375 -35.984375 C 3.375 -43.078125 4.90625 -49.398438 7.96875 -54.953125 C 11.039062 -60.515625 15.316406 -64.84375 20.796875 -67.9375 C 26.285156 -71.039062 32.507812 -72.59375 39.46875 -72.59375 C 47.988281 -72.59375 55.28125 -70.34375 61.34375 -65.84375 C 67.414062 -61.34375 71.472656 -55.207031 73.515625 -47.4375 L 54.296875 -47.4375 C 52.859375 -50.4375 50.828125 -52.71875 48.203125 -54.28125 C 45.585938 -55.851562 42.609375 -56.640625 39.265625 -56.640625 C 33.878906 -56.640625 29.515625 -54.765625 26.171875 -51.015625 C 22.835938 -47.273438 21.171875 -42.265625 21.171875 -35.984375 C 21.171875 -29.710938 22.835938 -24.703125 26.171875 -20.953125 C 29.515625 -17.210938 33.878906 -15.34375 39.265625 -15.34375 C 42.609375 -15.34375 45.585938 -16.125 48.203125 -17.6875 C 50.828125 -19.257812 52.859375 -21.546875 54.296875 -24.546875 L 73.515625 -24.546875 C 71.472656 -16.773438 67.414062 -10.65625 61.34375 -6.1875 C 55.28125 -1.71875 47.988281 0.515625 39.46875 0.515625 C 32.507812 0.515625 26.285156 -1.035156 20.796875 -4.140625 C 15.316406 -7.242188 11.039062 -11.554688 7.96875 -17.078125 C 4.90625 -22.597656 3.375 -28.898438 3.375 -35.984375 Z M 3.375 -35.984375 "/></g></g></g><g fill="#892233" fill-opacity="1"><g transform="translate(79.104665, 107.918477)"><g><path d="M 2.859375 -28.625 C 2.859375 -34.488281 3.96875 -39.632812 6.1875 -44.0625 C 8.40625 -48.5 11.421875 -51.910156 15.234375 -54.296875 C 19.054688 -56.679688 23.316406 -57.875 28.015625 -57.875 C 32.035156 -57.875 35.5625 -57.054688 38.59375 -55.421875 C 41.632812 -53.785156 43.972656 -51.640625 45.609375 -48.984375 L 45.609375 -57.0625 L 63.09375 -57.0625 L 63.09375 0 L 45.609375 0 L 45.609375 -8.078125 C 43.898438 -5.421875 41.53125 -3.273438 38.5 -1.640625 C 35.46875 -0.00390625 31.941406 0.8125 27.921875 0.8125 C 23.285156 0.8125 19.054688 -0.394531 15.234375 -2.8125 C 11.421875 -5.226562 8.40625 -8.671875 6.1875 -13.140625 C 3.96875 -17.609375 2.859375 -22.769531 2.859375 -28.625 Z M 45.609375 -28.53125 C 45.609375 -32.894531 44.394531 -36.335938 41.96875 -38.859375 C 39.550781 -41.378906 36.601562 -42.640625 33.125 -42.640625 C 29.65625 -42.640625 26.707031 -41.394531 24.28125 -38.90625 C 21.863281 -36.414062 20.65625 -32.988281 20.65625 -28.625 C 20.65625 -24.269531 21.863281 -20.8125 24.28125 -18.25 C 26.707031 -15.695312 29.65625 -14.421875 33.125 -14.421875 C 36.601562 -14.421875 39.550781 -15.679688 41.96875 -18.203125 C 44.394531 -20.722656 45.609375 -24.164062 45.609375 -28.53125 Z M 45.609375 -28.53125 "/></g></g></g><g fill="#892233" fill-opacity="1"><g transform="translate(148.526021, 107.918477)"><g><path d="M 79.140625 -57.671875 C 86.234375 -57.671875 91.875 -55.519531 96.0625 -51.21875 C 100.257812 -46.925781 102.359375 -40.960938 102.359375 -33.328125 L 102.359375 0 L 84.96875 0 L 84.96875 -30.984375 C 84.96875 -34.660156 83.992188 -37.503906 82.046875 -39.515625 C 80.109375 -41.523438 77.4375 -42.53125 74.03125 -42.53125 C 70.625 -42.53125 67.945312 -41.523438 66 -39.515625 C 64.0625 -37.503906 63.09375 -34.660156 63.09375 -30.984375 L 63.09375 0 L 45.703125 0 L 45.703125 -30.984375 C 45.703125 -34.660156 44.726562 -37.503906 42.78125 -39.515625 C 40.84375 -41.523438 38.171875 -42.53125 34.765625 -42.53125 C 31.359375 -42.53125 28.679688 -41.523438 26.734375 -39.515625 C 24.796875 -37.503906 23.828125 -34.660156 23.828125 -30.984375 L 23.828125 0 L 6.34375 0 L 6.34375 -57.0625 L 23.828125 -57.0625 L 23.828125 -49.890625 C 25.597656 -52.285156 27.914062 -54.179688 30.78125 -55.578125 C 33.644531 -56.972656 36.878906 -57.671875 40.484375 -57.671875 C 44.785156 -57.671875 48.625 -56.75 52 -54.90625 C 55.375 -53.0625 58.015625 -50.4375 59.921875 -47.03125 C 61.898438 -50.164062 64.59375 -52.722656 68 -54.703125 C 71.40625 -56.679688 75.117188 -57.671875 79.140625 -57.671875 Z M 79.140625 -57.671875 "/></g></g></g><g fill="#892233" fill-opacity="1"><g transform="translate(256.798799, 107.918477)"><g><path d="M 23.828125 -48.984375 C 25.523438 -51.640625 27.875 -53.785156 30.875 -55.421875 C 33.875 -57.054688 37.382812 -57.875 41.40625 -57.875 C 46.113281 -57.875 50.375 -56.679688 54.1875 -54.296875 C 58.007812 -51.910156 61.023438 -48.5 63.234375 -44.0625 C 65.453125 -39.632812 66.5625 -34.488281 66.5625 -28.625 C 66.5625 -22.769531 65.453125 -17.609375 63.234375 -13.140625 C 61.023438 -8.671875 58.007812 -5.226562 54.1875 -2.8125 C 50.375 -0.394531 46.113281 0.8125 41.40625 0.8125 C 37.457031 0.8125 33.960938 -0.00390625 30.921875 -1.640625 C 27.890625 -3.273438 25.523438 -5.382812 23.828125 -7.96875 L 23.828125 27.203125 L 6.34375 27.203125 L 6.34375 -57.0625 L 23.828125 -57.0625 Z M 48.765625 -28.625 C 48.765625 -32.988281 47.554688 -36.414062 45.140625 -38.90625 C 42.722656 -41.394531 39.742188 -42.640625 36.203125 -42.640625 C 32.722656 -42.640625 29.769531 -41.378906 27.34375 -38.859375 C 24.925781 -36.335938 23.71875 -32.894531 23.71875 -28.53125 C 23.71875 -24.164062 24.925781 -20.722656 27.34375 -18.203125 C 29.769531 -15.679688 32.722656 -14.421875 36.203125 -14.421875 C 39.671875 -14.421875 42.628906 -15.695312 45.078125 -18.25 C 47.535156 -20.8125 48.765625 -24.269531 48.765625 -28.625 Z M 48.765625 -28.625 "/></g></g></g><g fill="#ff751f" fill-opacity="1"><g transform="translate(326.231895, 107.918477)"><g><path d="M 23.828125 -48.984375 C 25.460938 -51.640625 27.8125 -53.785156 30.875 -55.421875 C 33.945312 -57.054688 37.457031 -57.875 41.40625 -57.875 C 46.113281 -57.875 50.375 -56.679688 54.1875 -54.296875 C 58.007812 -51.910156 61.023438 -48.5 63.234375 -44.0625 C 65.453125 -39.632812 66.5625 -34.488281 66.5625 -28.625 C 66.5625 -22.769531 65.453125 -17.609375 63.234375 -13.140625 C 61.023438 -8.671875 58.007812 -5.226562 54.1875 -2.8125 C 50.375 -0.394531 46.113281 0.8125 41.40625 0.8125 C 37.382812 0.8125 33.875 0.015625 30.875 -1.578125 C 27.875 -3.179688 25.523438 -5.3125 23.828125 -7.96875 L 23.828125 0 L 6.34375 0 L 6.34375 -75.671875 L 23.828125 -75.671875 Z M 48.765625 -28.625 C 48.765625 -32.988281 47.554688 -36.414062 45.140625 -38.90625 C 42.722656 -41.394531 39.742188 -42.640625 36.203125 -42.640625 C 32.722656 -42.640625 29.769531 -41.378906 27.34375 -38.859375 C 24.925781 -36.335938 23.71875 -32.894531 23.71875 -28.53125 C 23.71875 -24.164062 24.925781 -20.722656 27.34375 -18.203125 C 29.769531 -15.679688 32.722656 -14.421875 36.203125 -14.421875 C 39.671875 -14.421875 42.628906 -15.695312 45.078125 -18.25 C 47.535156 -20.8125 48.765625 -24.269531 48.765625 -28.625 Z M 48.765625 -28.625 "/></g></g></g><g fill="#ff751f" fill-opacity="1"><g transform="translate(395.653252, 107.918477)"><g><path d="M 60.125 -29.453125 C 60.125 -27.816406 60.019531 -26.109375 59.8125 -24.328125 L 20.25 -24.328125 C 20.519531 -20.785156 21.660156 -18.078125 23.671875 -16.203125 C 25.679688 -14.328125 28.148438 -13.390625 31.078125 -13.390625 C 35.441406 -13.390625 38.476562 -15.234375 40.1875 -18.921875 L 58.796875 -18.921875 C 57.835938 -15.171875 56.113281 -11.796875 53.625 -8.796875 C 51.132812 -5.796875 48.015625 -3.441406 44.265625 -1.734375 C 40.523438 -0.0351562 36.335938 0.8125 31.703125 0.8125 C 26.109375 0.8125 21.128906 -0.378906 16.765625 -2.765625 C 12.398438 -5.148438 8.988281 -8.554688 6.53125 -12.984375 C 4.082031 -17.410156 2.859375 -22.59375 2.859375 -28.53125 C 2.859375 -34.457031 4.066406 -39.632812 6.484375 -44.0625 C 8.910156 -48.5 12.300781 -51.910156 16.65625 -54.296875 C 21.019531 -56.679688 26.035156 -57.875 31.703125 -57.875 C 37.222656 -57.875 42.128906 -56.710938 46.421875 -54.390625 C 50.710938 -52.078125 54.066406 -48.769531 56.484375 -44.46875 C 58.910156 -40.175781 60.125 -35.171875 60.125 -29.453125 Z M 42.234375 -34.046875 C 42.234375 -37.046875 41.207031 -39.429688 39.15625 -41.203125 C 37.113281 -42.972656 34.5625 -43.859375 31.5 -43.859375 C 28.5625 -43.859375 26.085938 -43.003906 24.078125 -41.296875 C 22.066406 -39.597656 20.820312 -37.179688 20.34375 -34.046875 Z M 42.234375 -34.046875 "/></g></g></g><g fill="#ff751f" fill-opacity="1"><g transform="translate(458.633462, 107.918477)"><g><path d="M 23.828125 -47.546875 C 25.867188 -50.679688 28.421875 -53.148438 31.484375 -54.953125 C 34.554688 -56.765625 37.96875 -57.671875 41.71875 -57.671875 L 41.71875 -39.15625 L 36.90625 -39.15625 C 32.550781 -39.15625 29.28125 -38.21875 27.09375 -36.34375 C 24.914062 -34.46875 23.828125 -31.179688 23.828125 -26.484375 L 23.828125 0 L 6.34375 0 L 6.34375 -57.0625 L 23.828125 -57.0625 Z M 23.828125 -47.546875 "/></g></g></g><g fill="#ff751f" fill-opacity="1"><g transform="translate(502.392432, 107.918477)"><g><path d="M 23.828125 -47.546875 C 25.867188 -50.679688 28.421875 -53.148438 31.484375 -54.953125 C 34.554688 -56.765625 37.96875 -57.671875 41.71875 -57.671875 L 41.71875 -39.15625 L 36.90625 -39.15625 C 32.550781 -39.15625 29.28125 -38.21875 27.09375 -36.34375 C 24.914062 -34.46875 23.828125 -31.179688 23.828125 -26.484375 L 23.828125 0 L 6.34375 0 L 6.34375 -57.0625 L 23.828125 -57.0625 Z M 23.828125 -47.546875 "/></g></g></g><g fill="#ff751f" fill-opacity="1"><g transform="translate(546.151402, 107.918477)"><g><path d="M 64.625 -57.0625 L 28.828125 27.09375 L 10.015625 27.09375 L 23.109375 -1.9375 L -0.109375 -57.0625 L 19.421875 -57.0625 L 32.625 -21.375 L 45.703125 -57.0625 Z M 64.625 -57.0625 "/></g></g></g></g></g></svg>